<svg xmlns="http://www.w3.org/2000/svg" width="443" height="304" fill="none" viewBox="0 0 443 304"><filter id="a" width="269.306" height="205.614" x="85.113" y="54.404" color-interpolation-filters="sRGB" filterUnits="userSpaceOnUse"><feFlood flood-opacity="0" result="BackgroundImageFix"/><feBlend in="SourceGraphic" in2="BackgroundImageFix" mode="normal" result="shape"/><feGaussianBlur result="effect1_foregroundBlur_2110_460442" stdDeviation="14"/></filter><g filter="url(#a)"><path fill="#000" fill-opacity=".3" fill-rule="evenodd" d="M287.551 115.766c-52.271-19.913-116.313-1.856-159.663 29.903l-14.775-20.168c47.65-34.908 120.593-57 183.337-33.097 17.211 6.556 26.592 19.027 29.198 34.171 2.413 14.024-1.148 29.178-6.381 42.562-5.335 13.646-12.993 26.917-20.486 37.801-7.394 10.742-15.164 19.936-21.078 25.08l-16.405-18.866c3.669-3.19 10.066-10.474 16.89-20.389 6.727-9.772 13.34-21.334 17.796-32.73 4.558-11.658 6.31-21.754 5.026-29.219-1.092-6.346-4.42-11.604-13.459-15.048z" clip-rule="evenodd"/></g><path fill="#7e5522" d="m115.813 125.126 46.575-27.36c-3.132 1.84-5.929 4.263-8.332 7.236a35.011 35.011 0 0 0-2.45 3.439L105.031 135.8a35.545 35.545 0 0 1 2.45-3.439c2.403-2.973 5.2-5.396 8.332-7.235z"/><path fill="#835823" d="m105.031 135.8 46.575-27.359a39.377 39.377 0 0 0-2.296 4.222l-46.576 27.359a39.836 39.836 0 0 1 2.297-4.222z"/><path fill="#885b24" d="m102.733 140.021 46.575-27.359a44.54 44.54 0 0 0-1.502 3.607l-46.576 27.359c.459-1.25.961-2.453 1.503-3.607z"/><path fill="#8c5f26" d="m101.231 143.628 46.575-27.359a49.978 49.978 0 0 0-1.086 3.325l-46.575 27.359c.33-1.143.693-2.252 1.086-3.325z"/><path fill="#916227" d="m100.146 146.953 46.575-27.359a55.261 55.261 0 0 0-.812 3.162l-46.575 27.359a54.04 54.04 0 0 1 .812-3.162z"/><path fill="#966528" d="m99.332 150.115 46.575-27.359a61.161 61.161 0 0 0-.605 3.061l-46.575 27.359c.179-1.043.38-2.064.605-3.061z"/><path fill="#9b682a" d="m98.726 153.176 46.575-27.359a65.992 65.992 0 0 0-.441 2.998l-46.575 27.359c.126-1.019.274-2.019.441-2.998z"/><path fill="#a06c2b" d="m98.287 156.175 46.575-27.359a70.652 70.652 0 0 0-.304 2.984l-46.576 27.359c.083-1.013.184-2.007.305-2.984z"/><path fill="#a56f2c" d="M97.983 159.159 144.56 131.8c-.079.973-.14 1.964-.181 2.972l-46.575 27.359c.042-1.007.102-1.997.18-2.972z"/><path fill="#a9722d" d="m97.802 162.132 46.575-27.36a79.667 79.667 0 0 0-.069 3.001l-46.576 27.359c.006-1.016.028-2.016.07-3z"/><path fill="#ae752f" d="m97.732 165.132 46.576-27.359v.177l-46.576 27.359v-.177z"/><path fill="#7e5522" d="m94.043 87.27 46.575-27.36a44.393 44.393 0 0 1 7.722-3.584l-46.575 27.359a44.362 44.362 0 0 0-7.722 3.584z"/><path fill="#835823" d="m101.766 83.685 46.575-27.36a46.576 46.576 0 0 1 6.412-1.754L108.177 81.93a46.786 46.786 0 0 0-6.411 1.755z"/><path fill="#885b24" d="m108.178 81.93 46.575-27.36c1.729-.344 3.501-.6 5.31-.765l-46.575 27.36a49.964 49.964 0 0 0-5.31.765z"/><path fill="#8c5f26" d="m113.486 81.165 46.575-27.36a54.714 54.714 0 0 1 4.731-.22l-46.576 27.36c-1.603.005-3.181.079-4.73.22z"/><path fill="#916227" d="m118.217 80.944 46.575-27.359a58.653 58.653 0 0 1 4.369.15l-46.575 27.358a58.653 58.653 0 0 0-4.369-.149z"/><path fill="#966528" d="m122.586 81.093 46.575-27.359a62.008 62.008 0 0 1 4.14.431l-46.575 27.36a64.09 64.09 0 0 0-4.14-.432z"/><path fill="#9b682a" d="m126.727 81.526 46.575-27.36a69.92 69.92 0 0 1 3.975.665l-46.575 27.36a69.832 69.832 0 0 0-3.975-.665z"/><path fill="#a06c2b" d="m130.703 82.19 46.575-27.359c1.277.251 2.565.541 3.866.87l-46.575 27.36a74.014 74.014 0 0 0-3.866-.87z"/><path fill="#a56f2c" d="m134.568 83.06 46.575-27.359c1.252.317 2.515.669 3.787 1.058l-46.575 27.36a79.857 79.857 0 0 0-3.787-1.059z"/><path fill="#a9722d" d="m138.357 84.118 46.576-27.359c1.235.378 2.481.79 3.735 1.237l-46.575 27.359a87.09 87.09 0 0 0-3.736-1.237z"/><path fill="#ae752f" d="m142.092 85.354 46.575-27.36c1.23.438 2.468.91 3.714 1.414l-46.575 27.36a92.18 92.18 0 0 0-3.714-1.414z"/><path fill="#b37930" d="m145.805 86.767 46.575-27.359a99.846 99.846 0 0 1 3.715 1.594l-46.575 27.36a100.573 100.573 0 0 0-3.715-1.595z"/><path fill="#b87c31" d="m149.523 88.361 46.576-27.359c1.239.561 2.486 1.155 3.74 1.782l-46.575 27.359a107.206 107.206 0 0 0-3.741-1.782z"/><path fill="#bd7f33" d="m153.262 90.143 46.575-27.36a115.38 115.38 0 0 1 3.788 1.984L157.05 92.126a115.08 115.08 0 0 0-3.788-1.983z"/><path fill="#c28234" d="m157.051 92.126 46.575-27.36c.983.54 1.971 1.096 2.962 1.675l-46.575 27.36a121.97 121.97 0 0 0-2.962-1.675z"/><path fill="#c28234" d="m160.012 93.8 46.575-27.359c.3.175.6.352.899.53l-46.575 27.36c-.299-.179-.599-.355-.899-.53z"/><path fill="#c68635" d="m160.91 94.33 46.575-27.358c1.307.777 2.609 1.583 3.903 2.415l-46.575 27.359a133.977 133.977 0 0 0-3.903-2.415z"/><path fill="#cb8937" d="m164.814 96.745 46.576-27.36c1.323.85 2.638 1.73 3.945 2.635L168.76 99.379a140.137 140.137 0 0 0-3.946-2.634z"/><path fill="#d08c38" d="m168.76 99.379 46.575-27.36c1.345.933 2.683 1.894 4.011 2.882l-46.575 27.359a148.931 148.931 0 0 0-4.011-2.881z"/><path fill="#d58f39" d="m172.771 102.26 46.576-27.359a154.44 154.44 0 0 1 4.084 3.147l-46.575 27.359a158.924 158.924 0 0 0-4.085-3.147z"/><path fill="#da933b" d="m176.855 105.406 46.576-27.359a163.521 163.521 0 0 1 4.135 3.412l-46.575 27.359a159.328 159.328 0 0 0-4.136-3.412z"/><path fill="#df963c" d="m180.992 108.819 46.575-27.359a173.456 173.456 0 0 1 4.141 3.65l-46.575 27.36a171.362 171.362 0 0 0-4.141-3.651z"/><path fill="#e3993d" d="m185.131 112.468 46.575-27.359a180.395 180.395 0 0 1 4.078 3.834l-46.575 27.359a180.437 180.437 0 0 0-4.078-3.834z"/><path fill="#e89c3e" d="m189.209 116.302 46.575-27.36a187.755 187.755 0 0 1 3.944 3.944l-46.575 27.359a187.974 187.974 0 0 0-3.944-3.943z"/><path fill="#eda040" d="m193.152 120.245 46.575-27.36a194.845 194.845 0 0 1 3.757 3.98l-46.575 27.36a196.897 196.897 0 0 0-3.757-3.98z"/><path fill="#f2a341" d="m196.91 124.226 46.575-27.36a198.758 198.758 0 0 1 3.612 4.046l-46.575 27.359a203.414 203.414 0 0 0-3.612-4.045z"/><path fill="#f4ae58" d="m200.521 128.271 46.576-27.359a212.885 212.885 0 0 1 3.521 4.164l-46.575 27.359a202.946 202.946 0 0 0-3.522-4.164z"/><path fill="#f4b361" d="m204.045 132.434 46.575-27.36a209.939 209.939 0 0 1 3.583 4.474l-46.576 27.359a209.837 209.837 0 0 0-3.582-4.473z"/><path fill="#f5b668" d="m207.625 136.907 46.575-27.359a216.097 216.097 0 0 1 3.884 5.141l-46.575 27.359a223.075 223.075 0 0 0-3.884-5.141z"/><path fill="#f5b96f" d="m211.51 142.048 46.575-27.359a223.641 223.641 0 0 1 5.358 7.646l-46.575 27.36a224.105 224.105 0 0 0-5.358-7.647z"/><path fill="#f5bc74" d="m216.867 149.695 46.575-27.36a228.729 228.729 0 0 1 8.115 13.036l-46.575 27.359a228.49 228.49 0 0 0-8.115-13.035z"/><path fill="#f5b96f" d="m224.982 162.729 46.576-27.359a228.564 228.564 0 0 1 4.303 7.806l-46.575 27.359a231.482 231.482 0 0 0-4.304-7.806z"/><path fill="#f5b668" d="m229.285 170.535 46.575-27.359a227.642 227.642 0 0 1 2.815 5.526L232.1 176.061a227.642 227.642 0 0 0-2.815-5.526z"/><path fill="#f4b361" d="m232.1 176.061 46.575-27.359c.774 1.574 1.53 3.154 2.266 4.742l-46.575 27.36a230.888 230.888 0 0 0-2.266-4.743z"/><path fill="#f4ae58" d="m234.365 180.804 46.575-27.36a215.656 215.656 0 0 1 2.031 4.512l-46.575 27.359a218.473 218.473 0 0 0-2.031-4.511z"/><path fill="#f2a341" d="m236.398 185.315 46.576-27.359a219.264 219.264 0 0 1 1.892 4.464l-46.575 27.359a213.798 213.798 0 0 0-1.893-4.464z"/><path fill="#eda040" d="m238.291 189.779 46.575-27.359a208.972 208.972 0 0 1 1.789 4.495l-46.575 27.359a208.972 208.972 0 0 0-1.789-4.495z"/><path fill="#e89c3e" d="m240.08 194.274 46.575-27.359a208.27 208.27 0 0 1 1.712 4.606l-46.575 27.359a208.27 208.27 0 0 0-1.712-4.606z"/><path fill="#e3993d" d="m241.793 198.88 46.575-27.359a206.528 206.528 0 0 1 1.637 4.743l-46.576 27.359a191.08 191.08 0 0 0-1.636-4.743z"/><path fill="#df963c" d="m243.43 203.623 46.575-27.359a199.685 199.685 0 0 1 1.55 4.882l-46.575 27.359a199.685 199.685 0 0 0-1.55-4.882z"/><path fill="#da933b" d="m244.979 208.506 46.575-27.359c.5 1.652.979 3.305 1.432 4.956l-46.576 27.359a191.196 191.196 0 0 0-1.431-4.956z"/><path fill="#d58f39" d="m246.412 213.462 46.575-27.359c.456 1.66.888 3.318 1.294 4.976l-46.575 27.359a187.812 187.812 0 0 0-1.294-4.976z"/><path fill="#d08c38" d="m247.703 218.437 46.575-27.359c.404 1.647.784 3.293 1.139 4.936l-46.576 27.359a178.855 178.855 0 0 0-1.138-4.936z"/><path fill="#cb8937" d="m248.844 223.375 46.575-27.359c.349 1.622.675 3.241.975 4.857l-46.575 27.36c-.3-1.617-.626-3.236-.975-4.858z"/><path fill="#c68635" d="m249.818 228.232 46.575-27.359c.297 1.593.568 3.181.815 4.765l-46.575 27.36a162.009 162.009 0 0 0-.815-4.766z"/><path fill="#c28234" d="m250.631 232.997 46.575-27.359c.243 1.563.464 3.122.658 4.676l-46.576 27.359a160.597 160.597 0 0 0-.657-4.676z"/><path fill="#bd7f33" d="m251.289 237.673 46.575-27.36c.193 1.538.361 3.071.506 4.599l-46.575 27.359a152.65 152.65 0 0 0-.506-4.598z"/><path fill="#b87c31" d="m251.797 242.271 46.575-27.359c.143 1.523.263 3.04.359 4.552l-46.575 27.359a142.127 142.127 0 0 0-.359-4.552z"/><path fill="#b37930" d="m252.154 246.821 46.575-27.359c.095 1.513.165 3.02.209 4.518l-46.575 27.359a135.697 135.697 0 0 0-.209-4.518z"/><path fill="#ae752f" d="m252.363 251.339 46.575-27.359c.043 1.422.062 2.837.058 4.244l-46.576 27.36c.004-1.409-.016-2.823-.057-4.245z"/><path fill="#825723" d="M160.012 93.8c12.425 7.251 24.27 17.006 35.084 28.474 20.715 21.968 37.642 50.219 47.6 79.177 6.269 18.227 9.774 36.735 9.726 54.134l-30.728-17.933c.04-14.19-3.459-29.487-9.532-44.198-7.336-17.775-18.434-34.702-31.587-47.797-6.46-6.43-13.415-11.936-20.661-16.165-7.249-4.231-14.212-6.846-20.685-7.963-13.185-2.276-24.34 1.664-31.752 10.832-6.136 7.589-9.709 18.757-9.749 32.947L67 147.376c.05-17.398 3.646-31.76 9.997-42.624 10.089-17.26 27.119-25.693 47.887-23.453 10.844 1.172 22.706 5.25 35.128 12.501z"/><path fill="#d87791" d="M144.324 136.428c.004-.18.01-.359.015-.539a83.722 83.722 0 0 1 .052-1.423c.013-.294.028-.587.045-.878.011-.178.02-.357.032-.534.02-.304.041-.604.063-.905.012-.157.023-.316.036-.471.038-.46.079-.915.125-1.366 0-.007 0-.013.002-.02.046-.458.098-.912.154-1.362.016-.134.034-.265.051-.4.043-.335.088-.668.136-.999l.068-.461c.049-.327.101-.65.154-.971l.074-.45.044-.25a57.969 57.969 0 0 1 .687-3.304c.077-.325.156-.647.239-.967l.03-.114c.073-.283.149-.565.228-.844.026-.094.051-.188.078-.281l.194-.669.098-.328c.076-.252.154-.5.234-.747l.062-.199c.101-.311.206-.619.312-.923.028-.082.059-.163.087-.243.077-.219.157-.438.236-.654l.166-.438c.065-.171.13-.341.198-.51.057-.145.116-.289.174-.433.068-.166.136-.333.206-.498l.182-.425a54.612 54.612 0 0 1 .404-.904 45.806 45.806 0 0 1 .543-1.13l.157-.316c.169-.332.34-.661.515-.983l.002-.002c.175-.323.354-.64.536-.952.057-.1.117-.196.176-.294.128-.217.257-.431.389-.644.072-.114.142-.228.215-.342.109-.172.219-.341.331-.51.076-.114.151-.23.228-.342a37.928 37.928 0 0 1 .574-.826c.13-.181.263-.36.396-.539l.194-.261c.199-.262.401-.521.607-.775l-30.48-27.609-46.575 27.359 30.48 27.609c-.206.254-.408.513-.607.775l-.194.261a41.4 41.4 0 0 0-.396.539c-.076.105-.149.211-.223.317a32.53 32.53 0 0 0-.351.509c-.077.112-.153.228-.228.342-.112.169-.222.338-.331.51-.04.062-.081.122-.12.185l-.095.158a27.42 27.42 0 0 0-.389.643l-.176.295c-.182.314-.362.631-.538.953v.002c-.175.323-.346.651-.515.982l-.157.316a46.187 46.187 0 0 0-.426.874c-.04.085-.077.171-.117.255a41.795 41.795 0 0 0-.404.902l-.183.426a74.113 74.113 0 0 0-.38.93 44.969 44.969 0 0 0-.364.948l-.056.145-.182.509-.086.242c-.107.306-.21.614-.312.925-.022.066-.042.133-.063.199-.08.247-.158.495-.234.746l-.098.329c-.037.125-.076.25-.112.376l-.082.294c-.026.094-.053.187-.078.281a69.826 69.826 0 0 0-.258.958c-.082.32-.162.642-.239.967l-.064.271-.09.39c-.03.129-.057.259-.085.388l-.05.228c-.068.325-.136.653-.201.983l-.037.192c-.055.282-.107.565-.158.85l-.046.249c-.009.057-.02.113-.03.17-.016.092-.03.188-.045.28-.053.322-.105.646-.154.972-.023.153-.047.308-.068.462-.048.33-.092.665-.136.999l-.038.285-.013.114a69.997 69.997 0 0 0-.156 1.377c-.046.453-.087.911-.125 1.371-.002.041-.008.081-.01.121-.01.116-.016.234-.026.349a66.57 66.57 0 0 0-.063.906l-.032.532c-.016.293-.032.587-.045.881-.004.102-.012.201-.016.303-.004.081-.006.164-.008.246-.01.29-.02.581-.028.874l-.015.536c-.006.323-.01.651-.013.979 0 .122-.004.243-.005.366v.176l46.575-27.359c0-.184.004-.364.005-.546.003-.327.007-.653.013-.975z"/><path fill="#d8436b" d="m76.997 104.753 30.48 27.609c-6.136 7.589-9.709 18.757-9.749 32.947L67 147.377c.05-17.398 3.646-31.76 9.997-42.624z"/><path fill="#ffb547" d="m185.921 94.17-14.343-40.23a66.23 66.23 0 0 0-1.12-.11l-.377-.031c-.246-.02-.492-.042-.736-.06-.02 0-.04-.003-.06-.005l-.422-.025a44.26 44.26 0 0 0-.608-.038c-.163-.01-.326-.015-.49-.023-.198-.009-.396-.018-.592-.025l-.494-.014a88.37 88.37 0 0 0-.581-.014 58.8 58.8 0 0 0-.495-.006c-.19-.001-.381-.004-.571-.004h-.121c-.101 0-.202.004-.303.004-.239.003-.478.006-.717.011-.149.003-.298.008-.445.012a56.23 56.23 0 0 0-1.132.044l-.684.04c-.144.009-.286.017-.429.028-.243.017-.486.037-.728.057l-.292.023-.108.01a45.163 45.163 0 0 0-.942.097l-.192.022a44.182 44.182 0 0 0-1.795.24l-.195.03c-.288.044-.574.091-.86.14l-.171.032c-.243.043-.486.088-.728.134l-.197.038-.122.024c-.202.04-.402.083-.603.126-.064.013-.127.025-.191.04-.299.065-.597.133-.893.203l-.235.058a36.398 36.398 0 0 0-.971.247c-.187.05-.374.1-.562.152l-.34.096a38.464 38.464 0 0 0-.878.262c-.187.058-.374.117-.56.177l-.302.097a55 55 0 0 0-.688.234c-.054.018-.109.036-.163.056a2.249 2.249 0 0 0-.024.008l-.194.071c-.249.089-.497.179-.744.273a43.281 43.281 0 0 0-.948.37c-.127.051-.253.104-.379.156-.187.078-.375.156-.561.236l-.388.17c-.181.08-.362.16-.543.244l-.385.178c-.181.085-.36.172-.539.26l-.375.183c-.184.092-.368.186-.55.281l-.35.181c-.2.105-.398.214-.596.321l-.293.16c-.294.164-.585.329-.874.5h-.003L94.164 87.27c.29-.17.582-.337.875-.501l.293-.16c.198-.109.395-.216.596-.322.116-.062.234-.121.35-.182.184-.094.367-.188.552-.28l.375-.184.54-.26.385-.178c.181-.083.363-.164.545-.244l.387-.17c.186-.08.374-.158.561-.236l.378-.155c.2-.08.402-.16.605-.238.115-.044.229-.09.343-.133.249-.094.497-.184.748-.274.072-.025.142-.052.214-.078l.167-.057c.227-.08.456-.158.684-.233.1-.033.201-.064.302-.098.186-.06.373-.12.56-.177l.335-.102.543-.16.34-.096c.186-.053.374-.102.561-.152.108-.028.214-.058.321-.085.216-.055.432-.109.649-.16.079-.02.159-.041.239-.06.296-.07.594-.138.892-.203l.196-.04a63.649 63.649 0 0 1 .92-.187c.242-.047.484-.09.727-.134.058-.01.115-.021.174-.03a43.441 43.441 0 0 1 1.793-.277l.183-.026a46.85 46.85 0 0 1 1.815-.207c.065-.006.129-.013.194-.018l.397-.034c.243-.02.486-.04.729-.058l.428-.028a38.629 38.629 0 0 1 1.132-.059c.227-.01.455-.017.684-.024.147-.004.296-.01.443-.012.24-.006.479-.008.719-.01.141 0 .28-.004.421-.005.191 0 .383.001.574.004l.493.005c.194.003.388.01.583.015a46.608 46.608 0 0 1 1.085.039c.164.008.326.014.49.023.202.01.405.024.609.038.159.01.32.018.479.03.247.018.494.04.741.06.124.01.248.018.371.03.372.034.745.07 1.12.11l11.348 31.829-20.425 11.998c-3.132 1.84-5.929 4.263-8.332 7.236l29.447-17.298 2.305 6.465 46.575-27.359z"/><path fill="#ffc46b" d="m125.002 81.299 14.343 40.23c-13.185-2.276-24.34 1.664-31.752 10.832l-30.48-27.609c10.089-17.26 27.119-25.693 47.888-23.453z"/><path fill="#c1ca57" d="M240.64 93.88c-.108-.115-.219-.228-.328-.34-.207-.215-.413-.43-.62-.643l-.05-.053-.396-.404-.609-.622-.427-.43-.582-.586-.445-.442-.57-.564c-.153-.15-.305-.3-.458-.448l-.405-.396-.156-.15c-.159-.155-.319-.308-.478-.461l-.555-.532-.484-.458-.554-.522c-.162-.153-.325-.303-.488-.455-.185-.172-.37-.344-.556-.514l-.491-.451-.318-.292-.241-.217-.491-.443a94.263 94.263 0 0 0-1.054-.942c-.189-.166-.376-.333-.565-.498-.165-.145-.331-.288-.495-.433l-.565-.49a84.346 84.346 0 0 0-.499-.43c-.077-.066-.153-.133-.23-.197l-.347-.293-.479-.406c-.196-.165-.392-.329-.589-.492l-.475-.396c-.2-.166-.399-.33-.599-.492a122.709 122.709 0 0 0-1.083-.88c-.154-.123-.307-.248-.461-.37a5.787 5.787 0 0 1-.103-.083c-.197-.157-.395-.312-.592-.467l-.366-.29c-.31-.243-.621-.485-.933-.725-.045-.035-.09-.072-.136-.106-.356-.276-.714-.547-1.071-.818-.112-.085-.225-.168-.336-.253l-.651-.488-.092-.067-.381-.281c-.228-.17-.458-.337-.687-.505a87.091 87.091 0 0 0-.425-.307l-.648-.468c-.147-.106-.296-.21-.444-.315a177.24 177.24 0 0 0-1.084-.761c-.083-.058-.167-.119-.251-.176-.136-.096-.275-.188-.411-.284l-.404-.277c-.245-.167-.489-.332-.735-.497l-.338-.229c-.358-.238-.715-.475-1.074-.71-.025-.016-.05-.032-.075-.05-.303-.197-.605-.394-.908-.589l-.094-.06-.339-.216c-.246-.156-.49-.312-.736-.466a325.828 325.828 0 0 0-1.086-.675l-.415-.254c-.232-.143-.465-.282-.698-.423l-.388-.234-.145-.087a114.21 114.21 0 0 0-2.249-1.305l-.413-.233c-.319-.18-.638-.357-.956-.531-.081-.045-.162-.092-.243-.136l-.307-.166c-.132-.071-.262-.143-.394-.212-.24-.13-.479-.257-.718-.385-.118-.061-.235-.124-.353-.186-.318-.167-.635-.332-.953-.494-.036-.019-.072-.038-.108-.055-.32-.164-.638-.325-.957-.485l-.097-.048-.322-.159a78.508 78.508 0 0 0-.737-.362l-.38-.184c-.231-.112-.461-.22-.692-.33l-.377-.176c-.25-.117-.499-.231-.748-.345l-.301-.139c-.028-.013-.058-.025-.085-.039a91.067 91.067 0 0 0-.958-.427l-.158-.068c-.295-.129-.589-.256-.884-.383-.115-.05-.232-.098-.348-.147a79.307 79.307 0 0 0-.697-.292l-.381-.157-.291-.12-.385-.152c-.125-.05-.25-.101-.376-.15a95.2 95.2 0 0 0-1.035-.4c-.343-.131-.685-.26-1.027-.386l-.195-.071-.697-.253a4.854 4.854 0 0 1-.131-.045c-.123-.045-.245-.086-.369-.13a70.773 70.773 0 0 0-1.701-.575l-.394-.128a54.385 54.385 0 0 0-1.022-.32l-.12-.038-.62-.186-.287-.086c-.34-.099-.68-.197-1.018-.29-.069-.02-.139-.038-.208-.057-.27-.074-.538-.148-.807-.22-.12-.031-.24-.06-.36-.093l-.486-.126-.162-.04c-.145-.037-.289-.072-.433-.107l-.59-.142c-.146-.035-.293-.068-.439-.102a93.598 93.598 0 0 0-.582-.132l-.438-.095c-.194-.042-.387-.082-.58-.122l-.434-.089-.206-.041-.352-.067c-.158-.031-.317-.061-.475-.09-.185-.034-.368-.068-.552-.1a52.013 52.013 0 0 0-.469-.082l-.555-.091-.461-.074-.558-.083-.451-.066-.104-.015c-.184-.025-.368-.048-.551-.07-.106-.014-.213-.03-.319-.042-.325-.04-.649-.078-.972-.113l-46.575 27.359c.322.035.647.072.972.113l.323.041.651.086.453.066.556.082c.154.024.308.048.461.074.185.03.369.059.554.091l.468.082c.183.032.368.064.552.1.158.029.316.058.474.09.186.035.374.07.56.108l.434.089a109.552 109.552 0 0 1 1.019.217 93.598 93.598 0 0 1 1.612.376 48.31 48.31 0 0 1 1.08.273l.36.092c.269.071.538.145.807.219l.208.056c.339.094.679.192 1.019.292l.286.086c.247.074.494.147.741.223l.357.111c.222.069.442.138.664.21.132.041.263.084.395.127l.641.212.396.133c.222.075.444.153.666.23l.366.127c.278.098.556.199.834.301l.189.069a92.127 92.127 0 0 1 2.062.788l.374.149.675.272.384.157.695.29.35.148c.295.126.59.254.885.383.052.023.104.044.154.067a106.048 106.048 0 0 1 2.093.95l.376.178a66.265 66.265 0 0 1 1.071.512c.247.12.494.242.741.364l.319.157c.352.176.704.353 1.056.533a90.785 90.785 0 0 1 1.412.737l.72.385c.132.07.262.14.393.212.184.099.367.2.55.3.318.175.636.352.955.53.138.079.276.155.416.234.449.255.898.512 1.348.775.35.204.698.411 1.047.618l.384.23.703.426.411.253c.23.14.459.283.688.425l.4.25c.247.156.493.311.74.469l.336.213c.338.216.674.435 1.011.655l.068.045c.358.235.717.472 1.074.711.113.075.225.152.336.227.246.165.491.33.735.497l.405.278.663.458.446.311c.213.149.425.3.638.45l.444.315c.216.155.433.311.648.468l.425.307.688.506.378.28c.252.186.501.374.751.562l.327.246c.358.271.716.544 1.072.819l.138.107c.311.241.62.481.93.724.123.097.245.195.369.291a333.104 333.104 0 0 1 1.152.919l.613.495.471.386.599.491.475.396a256.787 256.787 0 0 1 1.069.898l.577.49.499.43a86.227 86.227 0 0 1 1.062.924l.563.496.494.44c.187.166.373.334.559.502a90.58 90.58 0 0 1 1.048.952l.493.452.554.513c.163.152.327.303.489.456l.553.521.484.46c.185.175.37.353.553.529l.479.461c.189.182.376.366.564.548l.457.446.571.565.445.441c.195.194.389.39.583.585.142.144.285.286.426.43l.606.617.4.408.673.697.326.337c.332.348.664.696.993 1.046l-14.522 23.382 46.575-27.359 14.522-23.382c-.33-.35-.661-.698-.993-1.046z"/><path fill="#d2e07e" d="M159.973 93.808c12.425 7.25 24.27 17.006 35.084 28.474l-14.523 23.382c-6.459-6.43-13.414-11.936-20.66-16.166-7.249-4.23-14.212-6.846-20.685-7.963l-14.343-40.23c10.843 1.172 22.705 5.251 35.127 12.502z"/><path fill="#50a055" d="M243.861 204.934c.156.486.312.97.465 1.456l.135.431c.13.415.258.829.385 1.244l.097.314c.154.507.307 1.016.457 1.524l.106.361c.119.403.234.804.35 1.207l.126.442c.138.49.276.978.41 1.468l.019.066c.141.51.278 1.021.413 1.532l.114.434a138.045 138.045 0 0 1 .411 1.583c.129.509.256 1.016.38 1.525l.062.259c.105.43.207.858.308 1.288l.104.444c.1.429.198.858.295 1.286.02.088.04.174.058.261.113.507.225 1.014.332 1.52l.083.385c.085.4.168.8.249 1.202l.083.401c.102.505.202 1.01.3 1.515l.04.209c.085.443.167.886.248 1.328l.076.418c.081.451.162.902.239 1.353l.031.175a162.626 162.626 0 0 1 .504 3.135c.016.106.034.213.049.319.075.497.147.994.216 1.489l.046.339c.056.409.11.817.164 1.225l.047.371c.063.494.124.988.181 1.482.011.085.019.171.029.255.049.425.096.848.141 1.272l.041.384a154.802 154.802 0 0 1 .161 1.631c.042.451.081.901.119 1.352l.032.386c.04.495.079.99.115 1.484v.006c.034.491.066.983.095 1.473l.023.386a153.373 153.373 0 0 1 .151 3.322c.015.438.028.876.037 1.313 0 .053.003.105.004.157.011.482.019.963.024 1.442 0 .114.003.227.003.341.004.486.007.971.005 1.456l46.575-27.359a101.002 101.002 0 0 0-.008-1.797c-.005-.48-.013-.961-.023-1.442 0-.052-.003-.104-.004-.157l-.022-.848c-.004-.155-.01-.309-.016-.464l-.013-.376a119.38 119.38 0 0 0-.138-2.945l-.023-.387-.02-.345c-.023-.376-.049-.752-.075-1.128v-.005c-.035-.494-.073-.99-.115-1.484l-.031-.387c-.038-.448-.077-.898-.119-1.348l-.013-.153-.004-.047c-.045-.478-.093-.956-.143-1.434l-.042-.385c-.045-.423-.091-.846-.14-1.27-.01-.085-.019-.171-.03-.255a178.26 178.26 0 0 0-.151-1.253l-.029-.229-.048-.371c-.053-.408-.108-.818-.163-1.226l-.047-.337a161.8 161.8 0 0 0-.215-1.489l-.049-.318-.108-.704-.085-.53-.064-.396c-.081-.502-.164-1.003-.249-1.505l-.031-.175a212.996 212.996 0 0 0-.315-1.771l-.07-.388-.178-.939-.04-.211c-.097-.505-.198-1.009-.3-1.513l-.082-.403c-.083-.4-.165-.8-.25-1.201l-.083-.385-.043-.205a222.994 222.994 0 0 0-.348-1.575c-.097-.429-.196-.858-.295-1.288l-.104-.444c-.101-.429-.203-.858-.308-1.286l-.063-.261-.019-.083c-.119-.481-.238-.96-.36-1.441l-.103-.397c-.101-.395-.203-.79-.308-1.184l-.114-.434a213.565 213.565 0 0 0-.413-1.533l-.016-.058a271.37 271.37 0 0 0-.413-1.477l-.125-.438c-.116-.403-.233-.805-.351-1.208l-.106-.361c-.138-.466-.276-.932-.419-1.399l-.038-.125-.097-.316c-.126-.415-.255-.83-.385-1.243-.045-.144-.091-.286-.134-.43-.154-.487-.31-.974-.467-1.462l-.022-.07a296.704 296.704 0 0 0-.472-1.432c-.219-.66-.441-1.319-.667-1.977l-30.534-7.998-46.575 27.359 30.534 7.998a217.145 217.145 0 0 1 1.164 3.483z"/><path fill="#61bd67" d="M242.698 201.451c6.269 18.227 9.774 36.734 9.726 54.134l-30.728-17.933c.04-14.19-3.459-29.487-9.532-44.198l30.534 7.998z"/><path fill="#7cba5e" d="M289.274 174.093a256.5 256.5 0 0 0-.46-1.322c-.05-.144-.102-.288-.153-.43a133.193 133.193 0 0 0-.309-.869c-.244-.679-.493-1.359-.744-2.037l-.143-.388a269.838 269.838 0 0 0-.807-2.129l-.087-.224c-.254-.657-.51-1.313-.771-1.969l-.029-.073c-.267-.67-.538-1.338-.812-2.006-.03-.074-.059-.149-.09-.223-.021-.054-.045-.106-.066-.16-.267-.647-.537-1.293-.809-1.937l-.153-.36c-.276-.65-.555-1.3-.839-1.948-.008-.019-.016-.039-.026-.058l-.006-.016c-.295-.677-.595-1.351-.898-2.025l-.165-.366c-.294-.652-.591-1.302-.891-1.95l-.071-.154c-.03-.068-.063-.135-.094-.202-.327-.703-.658-1.406-.991-2.106l-.108-.223c-.342-.715-.688-1.428-1.037-2.139l-.035-.071-.015-.033c-.222-.451-.447-.902-.671-1.352l-.056-.11c-.207-.413-.414-.825-.624-1.236-.077-.152-.156-.304-.234-.455-.152-.297-.304-.594-.457-.889l-.276-.532-.421-.808-.058-.11-.115-.216a239.4 239.4 0 0 0-1.942-3.604l-.182-.328c-.274-.495-.55-.989-.826-1.482l-.206-.365c-.32-.565-.642-1.129-.966-1.693l-.066-.116c-.056-.098-.115-.194-.17-.292-.214-.371-.429-.74-.646-1.108-.094-.16-.187-.321-.282-.481-.231-.392-.463-.784-.697-1.175-.066-.11-.131-.221-.198-.331-.296-.494-.595-.988-.895-1.481-.073-.121-.148-.24-.221-.36a192.551 192.551 0 0 0-.995-1.608c-.229-.368-.459-.735-.69-1.1l-.247-.392c-.31-.488-.621-.972-.933-1.457-.056-.086-.111-.172-.169-.259-.26-.401-.52-.802-.782-1.2l-.303-.46c-.232-.351-.465-.702-.699-1.051l-.187-.282a331.043 331.043 0 0 0-1.223-1.806l-.235-.341a260.872 260.872 0 0 0-1.213-1.75c-.393-.562-.789-1.119-1.188-1.676-.087-.124-.176-.247-.265-.371-.399-.554-.797-1.106-1.2-1.656l-.034-.049-.257-.346a199.588 199.588 0 0 0-.975-1.315l-.562-.749-.385-.509-.547-.718-.396-.516a434.017 434.017 0 0 0-.762-.986l-.107-.136a200.902 200.902 0 0 0-1.555-1.97l-.227-.283a211.86 211.86 0 0 0-1.577-1.942l-.117-.143a277.019 277.019 0 0 0-1.64-1.966l-.241-.283a210.383 210.383 0 0 0-1.551-1.81c-.031-.035-.06-.07-.089-.105-.116-.133-.233-.264-.348-.397l-.417-.477-.512-.579-.411-.464-.528-.588-.401-.446c-.183-.203-.367-.403-.55-.604l-.385-.423a2.615 2.615 0 0 1-.06-.066l-.567-.615-.307-.331c-.312-.337-.626-.672-.94-1.005l-46.575 27.359c.314.333.628.669.94 1.005l.304.329.631.683.385.422c.184.201.367.401.549.604l.402.448.526.587c.139.154.275.31.412.465l.512.578.417.477a194.153 194.153 0 0 1 1.988 2.313l.239.282c.51.604 1.018 1.213 1.523 1.825l.235.286c.528.643 1.054 1.29 1.576 1.941l.228.284c.522.652 1.04 1.309 1.555 1.969l.323.415.546.706.397.517.546.717a208.767 208.767 0 0 1 .948 1.26l.362.483.613.831.291.395c.403.549.802 1.102 1.2 1.655.089.124.178.247.265.372.397.556.793 1.115 1.187 1.675l.115.166c.368.525.733 1.053 1.097 1.583l.237.344c.382.558.761 1.118 1.139 1.681.092.135.182.272.273.408a377.86 377.86 0 0 1 1 1.509c.26.397.521.795.778 1.194l.172.264c.312.484.623.97.931 1.456.084.131.166.263.248.393.231.365.461.73.69 1.097l.296.475c.234.377.466.755.699 1.133l.221.362c.301.492.599.985.896 1.479.066.11.131.222.198.332.233.391.466.781.697 1.173l.283.482c.215.368.43.737.644 1.107l.238.41c.324.563.646 1.127.964 1.692l.208.368a266.125 266.125 0 0 1 1.939 3.521l.21.389c.269.501.536 1.003.802 1.505l.173.326.421.808c.091.178.184.355.276.532l.457.889c.078.152.157.303.234.455.21.412.417.825.624 1.237l.056.111c.226.45.449.9.671 1.351l.052.106c.349.71.694 1.423 1.036 2.136.035.075.073.15.109.226a224.33 224.33 0 0 1 3.109 6.803l.032.074c.283.648.562 1.298.838 1.948l.154.361c.273.645.542 1.29.809 1.937l.157.384c.274.668.545 1.336.812 2.005l.029.075c.26.655.517 1.311.77 1.967l.14.361c.255.664.506 1.328.754 1.993l.145.388c.251.678.499 1.357.744 2.037.105.291.207.581.311.872l.151.427c.156.441.308.882.461 1.324l46.575-27.359z"/><path fill="#a8db91" d="M195.097 122.274c20.716 21.968 37.643 50.219 47.601 79.177l-30.534-7.998c-7.337-17.776-18.435-34.702-31.588-47.797l14.523-23.382z"/><path fill="#191919" d="M185.411 120.086c-.694-.864-1.495-1.146-2.18-.883l-2.052.734.073.79.506.47-31.427 71.097a9.51 9.51 0 0 0-.388.877c-1.648 4.342-.636 10.79 2.26 14.404 2.895 3.613 6.579 3.023 8.227-1.319.119-.313.222-.636.314-.969l25.602-79.239c.681-1.797.263-4.466-.935-5.96z"/><path fill="#1b3b8c" d="m155.013 210.581 2.326-.823-1.378-.204-2.047.385z"/><path fill="#fff" stroke="#000" d="m183.665 126.655-.004.011-.004.012-25.604 79.239.476.154-.482-.133c-.088.319-.187.627-.299.924-.788 2.074-2.01 3.126-3.258 3.326-1.247.199-2.729-.418-4.112-2.143-1.38-1.723-2.331-4.15-2.73-6.694-.399-2.543-.238-5.149.548-7.219.113-.296.236-.571.367-.83l.005-.012.006-.011 31.676-71.66.006-.012.004-.013c.304-.801.745-1.13 1.12-1.19s.893.114 1.427.781c.532.663.909 1.615 1.069 2.631.159 1.016.092 2.041-.211 2.839z"/><path fill="#191919" d="M164.32 204.975c0-.029-.003-.059-.004-.088l-.01-.191c-.004-.074-.005-.148-.01-.223l-.014-.172-.016-.2-.01-.133c-.009-.095-.021-.192-.032-.288l-.019-.166-.006-.055c-.021-.173-.047-.347-.073-.521l-.002-.012-.013-.076c-.024-.145-.048-.292-.074-.437a1.838 1.838 0 0 1-.016-.079c-.013-.07-.028-.139-.043-.208l-.05-.254-.033-.142-.054-.228-.039-.175c-.018-.07-.038-.139-.055-.211-.02-.076-.038-.153-.06-.229-.01-.038-.018-.074-.029-.112l-.086-.299-.056-.195-.016-.055a30.116 30.116 0 0 0-.173-.543l-.017-.049a24.223 24.223 0 0 0-.191-.549c-.021-.059-.044-.118-.067-.179l-.094-.255-.065-.162c-.025-.066-.052-.132-.078-.196a17.87 17.87 0 0 0-.18-.434c-.021-.051-.042-.102-.065-.153l-.022-.054a24.739 24.739 0 0 0-.237-.522l-.069-.144-.183-.384c-.009-.02-.021-.04-.031-.06-.051-.105-.106-.208-.159-.311-.043-.084-.085-.168-.129-.251l-.025-.046a27.105 27.105 0 0 0-.444-.8 2.319 2.319 0 0 1-.037-.069c-.039-.067-.081-.133-.12-.2a15.267 15.267 0 0 0-.194-.322c-.058-.095-.119-.191-.179-.286a12.89 12.89 0 0 0-.202-.314c-.022-.035-.044-.07-.068-.105-.021-.034-.045-.064-.067-.097a25 25 0 0 0-.583-.839l-.008-.011a31.315 31.315 0 0 0-.449-.594c-.109-.141-.221-.278-.332-.417l-.059-.073-.004-.006c-.13-.158-.263-.315-.397-.47l-.02-.023-.123-.138a18.015 18.015 0 0 0-.257-.287l-.049-.053a10.278 10.278 0 0 0-.177-.186c-.065-.069-.129-.14-.195-.207-.024-.025-.049-.048-.073-.074-.064-.064-.128-.129-.193-.192-.055-.055-.11-.113-.167-.166a18.705 18.705 0 0 0-.304-.286l-.146-.139-.117-.102-.21-.185c-.044-.037-.086-.076-.13-.114l-.142-.117c-.069-.058-.139-.114-.208-.17-.035-.03-.071-.061-.108-.09-.059-.047-.119-.092-.178-.137-.066-.05-.129-.101-.194-.149l-.08-.061c-.08-.059-.161-.115-.241-.173-.054-.039-.108-.079-.163-.117-.015-.009-.028-.02-.042-.031-.145-.1-.29-.197-.436-.291l-.004-.003-.029-.017a15.508 15.508 0 0 0-.829-.493c-.041-.023-.083-.043-.124-.064l-.167-.088c-.044-.022-.086-.047-.13-.068-.069-.035-.138-.066-.207-.098l-.149-.071-.061-.03c-.139-.061-.275-.121-.411-.176h-.001a10.517 10.517 0 0 0-.413-.157l-.053-.017c-.05-.018-.099-.032-.148-.048-.07-.023-.141-.049-.21-.07-.034-.011-.069-.019-.103-.03-.061-.017-.121-.033-.181-.051l-.139-.039-.145-.032c-.06-.013-.121-.028-.181-.04l-.096-.022c-.057-.011-.111-.019-.168-.028l-.209-.035-.073-.012c-.057-.008-.113-.011-.17-.017-.074-.008-.149-.018-.222-.023-.021-.002-.044-.006-.065-.007-.05-.004-.098-.003-.149-.005a5.73 5.73 0 0 0-.261-.008l-.073-.003c-.096 0-.19.004-.285.008a7.369 7.369 0 0 0-.247.017c-.045.004-.089.011-.132.017l-.1.012a5.166 5.166 0 0 0-.359.059l-.01.002c-.032.007-.064.017-.096.023a4.552 4.552 0 0 0-.29.073c-.046.013-.091.029-.138.044-.061.019-.123.036-.183.058-.015.005-.029.013-.045.019a4.275 4.275 0 0 0-.271.111c-.044.019-.089.036-.132.056a4.81 4.81 0 0 0-.382.202h-.002l-3.975 2.335a4.68 4.68 0 0 1 .384-.202c.042-.02.087-.037.13-.056.09-.039.179-.078.272-.112.075-.028.15-.052.227-.076.047-.015.092-.031.138-.044.095-.027.192-.05.29-.073l.097-.023a6.17 6.17 0 0 1 .47-.074 5.56 5.56 0 0 1 .346-.03l.034-.003c.118-.006.238-.007.357-.006.087 0 .174.005.262.01.07.004.141.005.213.012.073.005.147.015.221.023.081.009.162.017.244.029.069.01.138.023.208.035.088.015.175.031.263.05.06.012.12.027.181.04a11.778 11.778 0 0 1 .465.122c.103.031.208.063.313.098l.148.049c.308.107.621.235.94.38l.148.07c.111.053.224.108.337.166.056.028.111.058.167.087a12.155 12.155 0 0 1 .953.557l.029.019c.162.105.323.214.483.325.055.038.109.078.164.117.107.077.214.154.32.234.065.048.129.099.194.149.095.073.191.149.287.227l.207.17.271.231.211.187a19.642 19.642 0 0 1 .472.436l.263.256c.065.065.129.128.192.194.091.091.18.185.269.279l.176.187c.103.111.205.225.306.338l.123.138c.143.164.283.329.421.498l.063.078a24.8 24.8 0 0 1 .782 1.014l.004.005c.201.274.393.556.583.841l.135.201c.067.105.135.21.201.316l.18.284.194.321.158.269a23.92 23.92 0 0 1 .596 1.095c.053.105.108.209.16.313.073.148.143.296.213.443l.07.144c.089.192.175.384.259.577l.065.153a23.198 23.198 0 0 1 .417 1.048c.022.059.045.118.066.178.067.182.129.364.19.545.005.018.012.035.019.053a17.34 17.34 0 0 1 .244.791c.04.138.08.275.117.413l.06.227a21.54 21.54 0 0 1 .231 1.01c.015.069.028.138.041.206.033.172.063.345.09.517l.014.077c.03.196.057.392.081.588l.018.166c.016.14.031.28.043.419l.016.202.024.396.009.189a11.881 11.881 0 0 1-.004 1.128l-.009.157a11.512 11.512 0 0 1-.168 1.418l-.049.248a6.452 6.452 0 0 1-.056.249c-.022.096-.047.19-.073.284l-.062.218c-.035.113-.07.221-.108.329-.024.067-.046.137-.071.202l-.039.1c-.044.111-.09.221-.139.329l-.028.063a7.512 7.512 0 0 1-.197.391l-.003.004a5.803 5.803 0 0 1-.213.361l-.048.071a5.991 5.991 0 0 1-.25.352c-.057.075-.117.147-.177.219-.022.026-.045.055-.069.081a5.052 5.052 0 0 1-.256.272l-.039.035a5.864 5.864 0 0 1-.235.213c-.029.026-.058.048-.089.073a8.324 8.324 0 0 1-.21.161c-.029.021-.058.043-.089.064-.099.069-.2.136-.304.196l3.976-2.335c.104-.061.205-.127.304-.196.031-.02.059-.043.089-.064.072-.053.142-.106.21-.161l.089-.073c.08-.068.159-.138.235-.212.013-.012.027-.023.039-.036.087-.086.172-.177.256-.271l.069-.082c.06-.071.12-.144.177-.219l.074-.098c.06-.082.118-.167.175-.254l.048-.071.015-.02c.07-.11.137-.226.2-.343v-.001a5.697 5.697 0 0 0 .198-.392c.01-.02.019-.042.028-.063.049-.107.095-.218.14-.329l.038-.099.029-.074c.016-.042.028-.087.043-.129.037-.108.074-.218.108-.329l.029-.087c.012-.042.021-.088.033-.131.025-.094.05-.188.073-.284.009-.039.021-.077.031-.117l.026-.132.049-.248.026-.128c.009-.051.014-.103.022-.154.012-.075.023-.15.033-.226l.018-.115c.008-.064.013-.133.02-.199l.022-.215c.003-.029.007-.056.009-.085.008-.097.012-.196.018-.294.002-.053.006-.105.009-.158a20.49 20.49 0 0 0 .015-.541v-.029c0-.156-.002-.312-.007-.469z"/><path fill="#fdd335" stroke="#000" d="m149.972 190.353-.116-.068c-2.746-1.602-5.117-1.696-6.771-.742-1.656.954-2.773 3.059-2.782 6.249m9.669-5.439.137-.5c5.674 3.311 10.258 11.337 10.239 17.927s-4.633 9.246-10.306 5.935c-5.674-3.311-10.256-11.336-10.239-17.925l.5.002m9.669-5.439c2.698 1.61 5.161 4.338 6.957 7.482 1.821 3.188 2.928 6.757 2.919 9.944-.009 3.19-1.127 5.295-2.782 6.248-1.655.952-4.027.858-6.772-.744-2.743-1.601-5.251-4.362-7.072-7.55-1.82-3.187-2.928-6.755-2.919-9.941m9.669-5.439-9.669 5.439"/><path fill="#fdd335" d="M135.69 248.114v-3.46h-1.134c-.797-1.173-2.016-2.272-3.658-3.22-6.391-3.689-16.752-3.689-23.142 0-1.642.948-2.861 2.047-3.659 3.22h-1.134v3.451c-.005 2.421 1.593 4.843 4.793 6.69 6.39 3.689 16.751 3.689 23.142 0 3.194-1.845 4.792-4.263 4.792-6.681z"/><path fill="#272245" d="M119.327 258.004c-4.274 0-8.545-.939-11.798-2.817-3.241-1.871-5.024-4.386-5.019-7.082v-3.45c0-.25.202-.453.452-.453h.899c.859-1.187 2.091-2.249 3.668-3.158 6.505-3.757 17.089-3.757 23.594 0 1.577.909 2.809 1.971 3.668 3.158h.9c.25 0 .453.203.453.453v3.46c0 2.693-1.783 5.204-5.019 7.074-3.253 1.877-7.525 2.816-11.797 2.816zm-15.912-12.898v2.999c-.004 2.36 1.618 4.596 4.567 6.298 6.256 3.611 16.434 3.611 22.689 0 2.944-1.7 4.566-3.934 4.566-6.289v-3.008h-.681a.456.456 0 0 1-.375-.198c-.785-1.153-1.967-2.191-3.51-3.083-6.256-3.611-16.435-3.611-22.689 0-1.545.892-2.726 1.929-3.511 3.083a.453.453 0 0 1-.375.198z"/><path fill="#fdd335" d="M119.327 254.12c9.038 0 16.364-4.23 16.364-9.447 0-5.218-7.326-9.448-16.364-9.448s-16.364 4.23-16.364 9.448c0 5.217 7.326 9.447 16.364 9.447z"/><path fill="#272245" d="M119.327 254.563c-4.274 0-8.545-.939-11.798-2.817-3.237-1.868-5.019-4.381-5.019-7.073s1.782-5.204 5.019-7.072c6.505-3.756 17.089-3.756 23.594 0 3.237 1.868 5.02 4.381 5.02 7.073s-1.783 5.204-5.02 7.073c-3.252 1.878-7.524 2.817-11.796 2.817zm0-18.887c-4.108 0-8.216.903-11.344 2.708-2.945 1.7-4.567 3.934-4.567 6.289s1.622 4.588 4.567 6.289c6.254 3.611 16.434 3.611 22.689 0 2.945-1.7 4.566-3.934 4.566-6.289s-1.621-4.588-4.566-6.289c-3.128-1.806-7.237-2.709-11.345-2.709z"/><path fill="#ffde8a" d="M119.326 251.748c6.768 0 12.254-3.168 12.254-7.075 0-3.908-5.486-7.075-12.254-7.075-6.767 0-12.254 3.167-12.254 7.075 0 3.907 5.487 7.075 12.254 7.075z"/><path fill="#fdd335" d="M118.831 247.576c-.787-.006-1.6-.198-2.443-.577l-1.115.644-.995-.575 1.084-.626a5.366 5.366 0 0 1-1.144-.96c-.299-.34-.477-.651-.537-.93l1.761-.385c.066.252.206.514.417.781.213.268.481.515.806.741l1.661-.959a6.018 6.018 0 0 1-.816-.908c-.185-.268-.253-.543-.203-.825.049-.282.296-.551.741-.807.551-.318 1.223-.475 2.02-.471.796.004 1.615.199 2.458.586l1.104-.638.995.575-1.084.626c.749.509 1.221 1.015 1.414 1.516l-1.722.42c-.212-.451-.547-.844-1.005-1.178l-1.692.977c.358.329.631.626.816.89.186.265.254.538.204.819s-.293.549-.731.801c-.544.315-1.209.468-1.995.463zm.681-4.163c.019.134.113.291.279.471l1.413-.816a2.368 2.368 0 0 0-.841-.158 1.3 1.3 0 0 0-.631.158c-.167.096-.239.211-.219.345zm-1.015 2.988c.239 0 .441-.047.607-.144.165-.096.24-.209.224-.341-.017-.133-.101-.289-.254-.469l-1.372.793c.292.108.556.161.796.161z"/><path fill="#fdd335" d="M138.607 242.677v-3.461h-1.134c-.798-1.172-2.016-2.271-3.658-3.22-6.391-3.689-16.752-3.689-23.142 0-1.642.949-2.861 2.048-3.659 3.22h-1.134v3.452c-.005 2.421 1.593 4.842 4.793 6.689 6.39 3.69 16.751 3.69 23.142 0 3.194-1.844 4.792-4.263 4.792-6.68z"/><path fill="#272245" d="M122.244 252.565c-4.274 0-8.545-.939-11.798-2.816-3.241-1.872-5.024-4.387-5.019-7.082v-3.451c0-.25.202-.453.452-.453h.899c.859-1.187 2.091-2.249 3.668-3.158 6.505-3.756 17.089-3.756 23.594 0 1.576.91 2.809 1.971 3.668 3.158h.9c.25 0 .453.203.453.453v3.461c0 2.692-1.783 5.203-5.019 7.073-3.253 1.877-7.525 2.817-11.797 2.817zm-15.912-12.897v2.999c-.003 2.359 1.618 4.595 4.567 6.297 6.256 3.612 16.434 3.612 22.689 0 2.944-1.699 4.566-3.933 4.566-6.288v-3.008h-.682a.457.457 0 0 1-.375-.198c-.785-1.155-1.967-2.191-3.51-3.083-6.256-3.611-16.435-3.611-22.69 0-1.543.892-2.725 1.928-3.51 3.083a.456.456 0 0 1-.375.198h-.681z"/><path fill="#fdd335" d="M122.241 248.681c9.038 0 16.365-4.229 16.365-9.447s-7.327-9.447-16.365-9.447-16.364 4.229-16.364 9.447 7.326 9.447 16.364 9.447z"/><path fill="#272245" d="M122.244 249.124c-4.274 0-8.545-.938-11.798-2.817-3.237-1.868-5.019-4.38-5.019-7.073 0-2.692 1.782-5.203 5.019-7.072 6.505-3.756 17.089-3.756 23.594 0 3.237 1.869 5.02 4.381 5.02 7.073 0 2.693-1.783 5.204-5.02 7.072-3.252 1.878-7.525 2.817-11.796 2.817zm0-18.887c-4.108 0-8.216.903-11.344 2.708-2.945 1.7-4.567 3.934-4.567 6.289s1.622 4.588 4.567 6.289c6.256 3.611 16.434 3.611 22.689 0 2.945-1.7 4.566-3.934 4.566-6.289s-1.621-4.588-4.566-6.289c-3.128-1.806-7.237-2.709-11.345-2.709z"/><path fill="#ffde8a" d="M122.243 246.309c6.768 0 12.254-3.167 12.254-7.075 0-3.907-5.486-7.075-12.254-7.075-6.767 0-12.254 3.168-12.254 7.075 0 3.908 5.487 7.075 12.254 7.075z"/><path fill="#272245" d="M122.244 246.752c-3.221 0-6.439-.707-8.892-2.123-2.46-1.42-3.816-3.336-3.816-5.395 0-2.058 1.355-3.974 3.815-5.395 4.903-2.83 12.88-2.83 17.782 0 2.461 1.421 3.816 3.337 3.816 5.395 0 2.059-1.354 3.975-3.815 5.395-2.451 1.414-5.672 2.123-8.891 2.123zm0-14.144c-3.056 0-6.112.671-8.439 2.014-2.168 1.252-3.362 2.89-3.362 4.611s1.194 3.359 3.363 4.61c4.654 2.687 12.225 2.687 16.877 0 2.168-1.251 3.362-2.889 3.362-4.61s-1.194-3.359-3.363-4.611c-2.327-1.343-5.382-2.014-8.439-2.014z"/><path fill="#fdd335" d="M121.748 242.137c-.787-.006-1.6-.198-2.443-.577l-1.115.644-.995-.575 1.084-.626a5.366 5.366 0 0 1-1.144-.96c-.299-.34-.477-.65-.537-.93l1.761-.385c.066.253.206.514.417.781.213.268.481.515.806.741l1.661-.959a5.97 5.97 0 0 1-.816-.908c-.185-.268-.253-.543-.203-.825.049-.282.296-.551.741-.807.551-.318 1.223-.475 2.02-.471.795.004 1.615.2 2.458.587l1.104-.639.995.575-1.084.626c.749.509 1.221 1.015 1.414 1.517l-1.722.419c-.213-.451-.547-.844-1.005-1.178l-1.692.977c.358.329.631.626.816.891.186.264.254.537.204.818-.05.282-.293.549-.731.801-.544.315-1.209.469-1.995.463zm.681-4.162c.019.133.113.29.279.47l1.413-.816c-.312-.11-.592-.164-.841-.158s-.459.059-.631.158c-.167.097-.239.211-.219.346zm-1.015 2.987c.239 0 .441-.047.607-.143.165-.097.24-.21.224-.342-.017-.133-.101-.289-.254-.469l-1.372.794c.292.107.556.16.796.16z"/><path fill="#fdd335" d="M135.699 234.799v-3.461h-1.134c-.798-1.172-2.017-2.271-3.659-3.219-6.39-3.69-16.751-3.69-23.142 0-1.642.948-2.861 2.047-3.658 3.219h-1.134v3.452c-.005 2.421 1.593 4.843 4.792 6.69 6.391 3.689 16.752 3.689 23.142 0 3.195-1.845 4.793-4.264 4.793-6.681z"/><path fill="#272245" d="M119.336 244.688c-4.274 0-8.545-.939-11.798-2.817-3.242-1.872-5.024-4.386-5.019-7.082v-3.451c0-.25.202-.452.452-.452h.899c.859-1.187 2.091-2.25 3.668-3.159 6.505-3.756 17.089-3.756 23.594 0 1.577.91 2.809 1.972 3.668 3.159h.9c.25 0 .452.202.452.452v3.461c0 2.692-1.782 5.204-5.019 7.073-3.252 1.878-7.525 2.817-11.796 2.817zm-15.912-12.898v2.999c-.005 2.36 1.617 4.596 4.566 6.298 6.256 3.611 16.435 3.611 22.69 0 2.944-1.7 4.566-3.934 4.566-6.289v-3.008h-.681a.457.457 0 0 1-.375-.198c-.785-1.153-1.967-2.191-3.51-3.083-6.256-3.611-16.435-3.611-22.69 0-1.543.892-2.725 1.929-3.51 3.083a.456.456 0 0 1-.375.198z"/><path fill="#fdd335" d="M119.333 240.804c9.038 0 16.364-4.23 16.364-9.448 0-5.217-7.326-9.447-16.364-9.447s-16.364 4.23-16.364 9.447c0 5.218 7.326 9.448 16.364 9.448z"/><path fill="#272245" d="M119.336 241.246c-4.274 0-8.545-.939-11.798-2.817-3.237-1.868-5.019-4.38-5.019-7.073 0-2.692 1.782-5.203 5.019-7.072 6.505-3.756 17.089-3.756 23.594 0 3.237 1.869 5.019 4.381 5.019 7.074 0 2.692-1.782 5.203-5.019 7.071-3.252 1.878-7.525 2.817-11.796 2.817zm0-18.887c-4.109 0-8.217.904-11.345 2.709-2.944 1.699-4.566 3.933-4.566 6.288s1.622 4.589 4.566 6.289c6.256 3.613 16.435 3.611 22.69 0 2.944-1.7 4.566-3.934 4.566-6.289s-1.622-4.587-4.566-6.288c-3.128-1.807-7.237-2.71-11.345-2.71z"/><path fill="#ffde8a" d="M119.335 238.432c6.768 0 12.254-3.168 12.254-7.076 0-3.907-5.486-7.075-12.254-7.075s-12.254 3.168-12.254 7.075c0 3.908 5.486 7.076 12.254 7.076z"/><path fill="#fdd335" d="M118.838 234.259c-.787-.005-1.6-.198-2.443-.577l-1.115.644-.995-.575 1.084-.626a5.363 5.363 0 0 1-1.144-.959c-.299-.341-.478-.651-.537-.931l1.76-.384c.067.252.206.513.418.78.213.269.481.515.806.742l1.662-.96a5.923 5.923 0 0 1-.816-.908c-.185-.268-.253-.543-.203-.825.049-.281.296-.551.741-.806.551-.318 1.223-.476 2.02-.471.796.003 1.615.199 2.458.586l1.104-.638.995.575-1.084.625c.749.51 1.221 1.016 1.414 1.517l-1.722.42c-.212-.452-.547-.844-1.005-1.178l-1.692.976c.358.33.631.626.816.891.186.265.254.538.204.818-.05.282-.293.549-.731.801-.544.315-1.209.469-1.995.463zm.681-4.162c.019.133.113.291.279.471l1.413-.816a2.394 2.394 0 0 0-.841-.159 1.3 1.3 0 0 0-.631.159c-.167.096-.239.21-.219.345zm-1.015 2.988c.239 0 .441-.048.607-.144.165-.096.24-.21.224-.342-.017-.132-.101-.288-.254-.468l-1.373.793c.292.107.557.161.797.161z"/><path fill="#fdd335" d="M136.728 228.917v-3.461h-1.134c-.797-1.173-2.016-2.271-3.658-3.22-6.391-3.689-16.752-3.689-23.142 0-1.642.949-2.861 2.047-3.659 3.22h-1.134v3.452c-.005 2.42 1.593 4.842 4.793 6.689 6.39 3.689 16.751 3.689 23.142 0 3.194-1.845 4.792-4.263 4.792-6.68z"/><path fill="#272245" d="M120.365 238.806c-4.274 0-8.545-.939-11.798-2.816-3.241-1.872-5.024-4.387-5.019-7.083v-3.45c0-.25.202-.453.453-.453h.898c.859-1.187 2.091-2.25 3.668-3.159 6.505-3.757 17.09-3.757 23.595 0 1.576.909 2.808 1.971 3.667 3.158h.9c.25 0 .453.203.453.453v3.46c0 2.693-1.783 5.204-5.019 7.074-3.253 1.877-7.526 2.816-11.797 2.816zm-15.912-12.898v2.999c-.004 2.36 1.618 4.596 4.567 6.298 6.256 3.612 16.434 3.612 22.689 0 2.945-1.7 4.566-3.933 4.566-6.289v-3.008h-.681a.456.456 0 0 1-.375-.198c-.785-1.153-1.967-2.191-3.51-3.082-6.256-3.612-16.435-3.612-22.689 0-1.545.891-2.726 1.928-3.511 3.082a.453.453 0 0 1-.375.198z"/><path fill="#fdd335" d="M120.362 234.922c9.038 0 16.365-4.229 16.365-9.447s-7.327-9.447-16.365-9.447c-9.037 0-16.364 4.229-16.364 9.447s7.327 9.447 16.364 9.447z"/><path fill="#272245" d="M120.365 235.364c-4.274 0-8.545-.938-11.798-2.817-3.237-1.868-5.019-4.381-5.019-7.073s1.782-5.204 5.019-7.072c6.505-3.756 17.09-3.756 23.595 0 3.236 1.868 5.019 4.381 5.019 7.073s-1.783 5.204-5.019 7.072c-3.253 1.878-7.526 2.817-11.797 2.817zm0-18.887c-4.108 0-8.217.903-11.344 2.708-2.945 1.7-4.567 3.934-4.567 6.289s1.622 4.589 4.567 6.289c6.256 3.611 16.434 3.611 22.689 0 2.945-1.7 4.566-3.934 4.566-6.289s-1.621-4.588-4.566-6.289c-3.128-1.806-7.236-2.709-11.345-2.709z"/><path fill="#ffde8a" d="M120.364 232.55c6.768 0 12.254-3.167 12.254-7.075s-5.486-7.075-12.254-7.075c-6.767 0-12.254 3.167-12.254 7.075s5.487 7.075 12.254 7.075z"/><path fill="#272245" d="M120.365 232.993c-3.221 0-6.44-.707-8.892-2.123-2.46-1.42-3.816-3.336-3.816-5.395 0-2.058 1.355-3.974 3.815-5.395 4.903-2.83 12.88-2.83 17.782 0 2.461 1.421 3.817 3.337 3.817 5.395 0 2.059-1.355 3.975-3.815 5.395-2.452 1.414-5.672 2.123-8.891 2.123zm0-14.144c-3.056 0-6.112.671-8.438 2.014-2.168 1.252-3.362 2.89-3.362 4.611s1.194 3.359 3.363 4.61c4.654 2.687 12.225 2.687 16.877 0 2.168-1.251 3.362-2.889 3.362-4.61s-1.193-3.359-3.363-4.611c-2.327-1.343-5.383-2.014-8.439-2.014z"/><path fill="#191919" d="m123.609 226.001-.407-.364c.165-.312.269-.637.313-.975.06-.324.054-.654-.019-.99l.02-.022 1.22 1.095c.08.071.164.106.252.104.118-.003.21-.041.277-.116s.089-.163.065-.265a.313.313 0 0 0-.111-.262l-4.714-4.228a.31.31 0 0 0-.272-.082.449.449 0 0 0-.237.071l-.02.023-.04.044-.02.023c.016.014.017.029.004.044l-.02.022-.041.045.024.022-.02.022c.016.014.017.029.004.044.016.014.017.029.004.044l.024.021c.016.015.017.029.003.044a.547.547 0 0 1 .024.022l.004.044.024.021.024.021.048.043 1.946 1.827c.399.357.65.799.755 1.325.118.51.078.988-.119 1.432l-3.709-3.327a.414.414 0 0 0-.296-.103c-.088.002-.166.04-.233.115s-.104.164-.109.266a.49.49 0 0 0 .155.261l3.757 3.37c-.421.405-.942.6-1.561.584a2.331 2.331 0 0 1-1.599-.624l-1.627-1.46a.666.666 0 0 0-.412-.166.509.509 0 0 0-.381.184.51.51 0 0 0-.114.222.566.566 0 0 0 .019.22l1.074 5.255.055.131a.302.302 0 0 0 .076.108.355.355 0 0 0 .251.104.361.361 0 0 0 .277-.116.195.195 0 0 0 .053-.155.378.378 0 0 0 .029-.176l-.956-4.664 1.173 1.051c.622.559 1.338.836 2.147.833.825.011 1.508-.254 2.05-.794l.02-.022.383.343c.08.072.164.106.252.105a.367.367 0 0 0 .277-.117.279.279 0 0 0 .065-.265.313.313 0 0 0-.111-.262z"/><rect width="86.047" height="107.559" x="267.51" y="111.026" fill="#fdd335" stroke="#191919" stroke-width="2.2" rx="2.656"/><path fill="#191919" fill-rule="evenodd" d="M282.631 132.909c.236-.236.684-.533.996-.659.532-.216 2.228-.231 26.86-.239 25.769-.007 27.128-.064 27.722.583.082.089.149.19.262.307.402.415.432.509.432 1.355 0 1.01-.135 1.25-1.026 1.816l-.495.315h-53.658l-.495-.315c-.891-.566-1.025-.804-1.026-1.82 0-.853.028-.942.428-1.343zm.646 13.455c-1.599-.89-1.537-2.813.121-3.766.373-.214 2.074-.229 27.118-.232l26.719-.004.536.28c.705.367 1.094.937 1.169 1.71.087.912-.241 1.517-1.085 2.001l-.678.389-26.624-.008-26.624-.007zm-1.074 8.49c0-.955.235-1.414.968-1.884.336-.216 1.328-.232 14.869-.241l14.51-.009.526.332c.942.594 1.307 1.782.824 2.678-.296.55-.74.881-1.545 1.152-.592.199-1.943.22-14.217.22-13.172 0-14.424.026-15.141-.58-.107-.091-.202-.195-.323-.316-.445-.446-.471-.521-.471-1.352zm48.46 9.617a247.936 247.936 0 0 0 2.453-2.341c.193-.2.303-.125 1.369.929.637.631 1.16 1.227 1.162 1.324.001.098-.213.367-.477.598s-.878.808-1.365 1.283-1.986 1.909-3.332 3.187-3.096 2.966-3.889 3.751-1.464 1.428-1.49 1.428-.488.433-1.026.963c-.538.529-2.018 1.948-3.29 3.153s-2.696 2.568-3.163 3.028c-.491.484-.686.711-.878.709-.175-.002-.348-.192-.741-.55-.274-.25-.68-.585-1.526-1.262a24.693 24.693 0 0 1-.809-.667 20.386 20.386 0 0 0-.83-.658c-.377-.287-.685-.569-.685-.627s-.062-.106-.139-.106c-.076 0-.27-.136-.431-.303s-.71-.63-1.22-1.029a25.771 25.771 0 0 1-1.133-.925c-.113-.11-.435-.378-.714-.598a24.836 24.836 0 0 1-1.408-1.169 20.801 20.801 0 0 0-1.03-.819c-.383-.287-.697-.57-.697-.628s-.062-.106-.139-.106c-.076 0-.271-.136-.431-.303a9.726 9.726 0 0 0-.834-.723l-.54-.419-1.128 1.088c-.62.598-2.255 2.163-3.634 3.478a503.466 503.466 0 0 0-4.001 3.851c-.821.803-1.96 1.902-2.53 2.441a632.075 632.075 0 0 0-4.92 4.715l-.961.934-1.197-1.243c-.658-.683-1.196-1.269-1.196-1.301s.215-.247.479-.478c.264-.232.789-.719 1.167-1.085.378-.365 1.817-1.739 3.197-3.054a394.86 394.86 0 0 0 4.089-3.95c.868-.858 1.598-1.56 1.623-1.56.024 0 .517-.464 1.095-1.03.579-.566 2.15-2.074 3.493-3.352a410.443 410.443 0 0 0 3.283-3.154c.464-.457.916-.83 1.005-.83s.358.179.598.398.492.399.561.399.125.044.125.099.521.518 1.157 1.029c.637.512 1.251 1.021 1.365 1.133s.49.406.834.653c.345.248.627.5.627.561 0 .06.068.11.152.11.083 0 .217.079.298.176.081.098.536.501 1.011.897s.883.764.907.819a.19.19 0 0 0 .162.1c.064 0 .286.164.492.365.207.201.687.601 1.067.89s.692.573.692.631.059.106.132.106.242.104.376.232c.277.265.609.542 1.55 1.295.365.292.712.606.77.697.215.336.63.146 1.45-.664.462-.457 1.941-1.876 3.288-3.154a340.67 340.67 0 0 0 3.89-3.751c.793-.785 1.464-1.428 1.491-1.428s.518-.463 1.09-1.029c.573-.566 2.05-1.985 3.284-3.154zm-5.503 41.563v-27.155h10.224v.048h.001v8.03l.001.002-.001.375v18.682h-6.514zm-26.691 0V181.797l5.079.035 5.08.035v24.13l-5.08.019zm13.279 0v-18.922h10.358v9.428c0 7.449-.035 9.43-.166 9.437-.092.005-2.422.02-5.179.033zm-26.69 0v-13.212h10.357v6.573c0 3.615-.045 6.573-.099 6.573l-5.179.033z" clip-rule="evenodd"/><circle cx="340.844" cy="127.925" r="26.686" fill="#fdd335" stroke="#191919" stroke-width="2.4" transform="rotate(-41.008 340.844 127.925)"/><rect width="6.507" height="30.674" x="355.766" y="150.145" fill="#191919" rx="1.461" transform="rotate(-41.008 355.766 150.145)"/><rect width="35.228" height="24.697" x="323.51" y="116.585" fill="#ee5271" rx="1.286"/><path fill="#fff" d="M328.592 132.7v-7.201h1.101l4.516 5.545h-.546v-5.545h1.327v7.201h-1.1l-4.516-5.545h.545v5.545zm9.562-4.208h3.58v1.101h-3.58zm.103 3.086h4.064v1.122h-5.401v-7.201h5.257v1.121h-3.92zm7.151 1.122-2.386-7.201h1.388l2.13 6.511h-.689l2.211-6.511h1.235l2.15 6.511h-.669l2.181-6.511h1.275l-2.386 7.201h-1.42l-1.965-5.874h.371l-1.996 5.874z"/><path stroke="#282634" stroke-width=".738" d="M314.706 97.779s-5.865 4.787-8.3.82c-2.435-3.965 5.508-10.846 7.186-7.995s-11.025 4.86-8.863-2.765c2.161-7.626 11.423-5.685 10.636-3.005-.786 2.68-11.915.648-10.444-10.167"/><path fill="#282634" d="m441.768 126.961-7.55 10.24-5.943-3.573 3.254-14.21z"/><path fill="#191919" d="M403.898 90.52a3.323 3.323 0 1 0-4.21 5.142 3.323 3.323 0 0 0 4.21-5.143z"/><path fill="#282634" d="m232.599 133.484-3.902 5.292-7.76-3.001 6.371-6.189z"/><path fill="#fdd335" d="m128.57 264.884-83.152-41.777-32.97 21.674-10.005-5.026.65 11.18 93.157 46.806 42.326-27.828-.65-11.18z"/><path fill="#191919" d="M96.304 298.661a.914.914 0 0 1-.467-.098l-93.16-46.805a.921.921 0 0 1-.506-.769l-.65-11.18a.916.916 0 0 1 .414-.822.925.925 0 0 1 .92-.054l9.533 4.789 32.522-21.383c.276-.18.625-.2.92-.054l82.677 41.54 8.914-5.861a.921.921 0 0 1 1.426.716l.649 11.18a.916.916 0 0 1-.414.822L96.757 298.51a.915.915 0 0 1-.453.151zM3.98 250.351l92.209 46.328 41.437-27.243-.526-9.056-8.026 5.275a.924.924 0 0 1-.919.054L45.478 224.17l-32.522 21.383a.925.925 0 0 1-.92.053l-8.582-4.311z"/><path fill="#fdd335" d="M95.6 286.561 2.444 239.755l42.326-27.828 93.157 46.806z"/><path fill="#191919" d="M95.655 287.478a.923.923 0 0 1-.467-.097l-93.16-46.806a.92.92 0 0 1-.093-1.591l42.326-27.828c.276-.18.625-.2.92-.053l93.159 46.805a.918.918 0 0 1 .093 1.591l-42.326 27.828a.915.915 0 0 1-.452.151zM4.28 239.646l91.259 45.85 40.548-26.659-91.26-45.85z"/><path fill="#fdd335" d="M95.311 281.56 11.1 239.252l33.96-22.327 84.212 42.311z"/><path fill="#191919" d="M95.363 282.48a.923.923 0 0 1-.467-.097l-84.211-42.311a.919.919 0 0 1-.093-1.591l33.96-22.327c.276-.18.625-.2.92-.053l84.212 42.31a.921.921 0 0 1 .092 1.591l-33.958 22.327a.915.915 0 0 1-.452.151zm-82.425-43.337 82.31 41.355 32.18-21.158-82.31-41.355-32.183 21.158z"/><path fill="#fff" d="m57.595 267.573-19.401-9.747 42.432-27.899 19.401 9.748z"/><path fill="#191919" d="M57.647 268.493a.923.923 0 0 1-.467-.097l-19.4-9.748a.918.918 0 0 1-.093-1.591l42.432-27.898c.276-.18.625-.2.92-.054l19.401 9.748a.92.92 0 0 1 .092 1.591L58.1 268.342a.915.915 0 0 1-.453.151zm-17.615-10.774 17.5 8.793 40.655-26.73-17.5-8.792z"/><path fill="#ededed" d="m38.194 257.826.643 11.068 19.453 9.774-.695-11.094z"/><path fill="#191919" d="M58.342 279.588a.913.913 0 0 1-.467-.098l-19.453-9.774a.921.921 0 0 1-.506-.769l-.643-11.067a.918.918 0 0 1 .414-.823.927.927 0 0 1 .92-.053l19.4 9.747a.923.923 0 0 1 .506.767l.695 11.094a.925.925 0 0 1-.866.978zm-18.618-11.279 17.545 8.815-.562-8.966-17.502-8.794.519 8.943z"/><path fill="#fdd335" d="m95.598 286.561.65 11.18 42.325-27.828-.649-11.18z"/><g fill="#191919"><path d="M96.305 298.661a.913.913 0 0 1-.467-.098.918.918 0 0 1-.506-.769l-.65-11.18a.918.918 0 0 1 .415-.822l42.325-27.828a.92.92 0 0 1 1.426.716l.649 11.18a.917.917 0 0 1-.414.822L96.758 298.51a.925.925 0 0 1-.453.151zm.248-11.622.526 9.055 40.548-26.659-.526-9.055zM49.192 235.896l-.63-.529c.23-.477.371-.971.42-1.482a3.727 3.727 0 0 0-.079-1.488l.03-.035 1.891 1.586a.548.548 0 0 0 .385.144.55.55 0 0 0 .41-.189.423.423 0 0 0 .085-.403.469.469 0 0 0-.18-.387l-7.308-6.124a.472.472 0 0 0-.414-.11.67.67 0 0 0-.352.12l-.03.034-.058.07-.029.035c.025.021.028.043.008.066l-.029.035-.058.069.037.031-.03.035c.025.021.028.043.009.066.024.021.027.043.008.066l.037.031c.024.021.027.042.008.066l.037.031.008.066.037.031.037.031.074.062 3.02 2.65a3.536 3.536 0 0 1 1.204 1.955c.203.762.168 1.483-.106 2.161l-5.75-4.818a.623.623 0 0 0-.45-.14c-.133.007-.248.069-.345.185s-.148.251-.151.406c.04.153.122.281.246.384l5.824 4.881c-.613.631-1.386.95-2.318.958-.908.029-1.721-.257-2.438-.858l-2.523-2.114a1 1 0 0 0-.628-.23.77.77 0 0 0-.564.297.767.767 0 0 0-.16.34.843.843 0 0 0 .04.33l1.881 7.853.09.194c.03.065.07.118.12.159a.538.538 0 0 0 .384.144.552.552 0 0 0 .41-.188.3.3 0 0 0 .072-.237.563.563 0 0 0 .035-.267l-1.675-6.969 1.818 1.523c.965.808 2.056 1.189 3.273 1.143 1.242-.025 2.257-.458 3.045-1.298l.029-.034.593.497a.543.543 0 0 0 .385.144.55.55 0 0 0 .41-.189.422.422 0 0 0 .085-.402.47.47 0 0 0-.18-.388z"/></g></svg>